<svg width="24" height="24" viewBox="0 0 24 24" fill="none" xmlns="http://www.w3.org/2000/svg">
<path fill-rule="evenodd" clip-rule="evenodd" d="M8.50001 3C8.02309 3 7.57459 3.2268 7.2919 3.61092C7.00922 3.99503 6.92605 4.49069 7.06786 4.94604L10.4012 15.6487C10.5964 16.2756 11.1767 16.7027 11.8333 16.7027C12.4899 16.7027 13.0702 16.2756 13.2655 15.6487L16.5988 4.94604C16.7406 4.49069 16.6575 3.99503 16.3748 3.61092C16.0921 3.2268 15.6436 3 15.1667 3H8.50001ZM11.8333 10.1583L10.5382 6H13.1284L11.8333 10.1583ZM11.8334 21.0405C13.0607 21.0405 14.0556 20.1693 14.0556 19.0946C14.0556 18.0199 13.0607 17.1486 11.8334 17.1486C10.6061 17.1486 9.61116 18.0199 9.61116 19.0946C9.61116 20.1693 10.6061 21.0405 11.8334 21.0405Z" fill="#FFF4E0"/>
</svg>
